<svg width="96" height="112" viewBox="0 0 96 112" fill="none" xmlns="http://www.w3.org/2000/svg">
  <path
    d="M48 8C28.1177 8 12 24.1177 12 44C12 58.3088 19.703 68.987 27.854 78.6352C36.0958 88.3917 44.4432 97.4923 48 106.765C51.5568 97.4923 59.9042 88.3917 68.146 78.6352C76.297 68.987 84 58.3088 84 44C84 24.1177 67.8823 8 48 8Z"
    fill="#1FAD4B"
  />
  <path
    d="M45.622 27.5961C46.9251 26.5581 48.7749 26.5581 50.078 27.5961L74.6631 47.1634C75.9377 48.1781 75.2205 50.22 73.583 50.22H68.2738V60.3127C68.2738 63.8273 65.7824 66.8468 62.333 67.5151L49.5443 69.9936C48.5354 70.1895 47.4978 70.2133 46.4803 70.0643L35.4448 68.4485C31.5286 67.8752 28.6786 64.5164 28.6786 60.5582V50.22H21.9542C20.3167 50.22 19.5995 48.1781 20.8741 47.1634L45.622 27.5961Z"
    fill="white"
  />
  <rect x="41.0908" y="44.7637" width="5.81395" height="5.81395" rx="0.4" fill="#1FAD4B" />
  <rect x="49.0791" y="44.7637" width="5.81395" height="5.81395" rx="0.4" fill="#1FAD4B" />
  <rect x="41.0908" y="52.752" width="5.81395" height="5.81395" rx="0.4" fill="#1FAD4B" />
  <rect x="49.0791" y="52.752" width="5.81395" height="5.81395" rx="0.4" fill="#1FAD4B" />
  <path
    d="M59.2482 58.1141C49.9319 59.0349 39.5493 63.7984 32.403 72.9893C27.5683 79.2092 25.4579 85.1679 24.5401 88.7492C24.2862 89.7397 25.5137 90.3227 26.1027 89.4867C31.0526 82.4542 39.7169 75.2749 50.6645 69.7124C57.2438 66.3691 63.9078 64.1825 69.7118 62.7736C70.929 62.478 71.6053 61.1532 71.0176 60.0493C69.8261 57.8099 66.7398 57.3924 59.2482 58.1141Z"
    fill="white"
  />
  <ellipse cx="48" cy="108.591" rx="7.98837" ry="1.7438" fill="#1FAD4B" />
</svg>
