<svg width="120" height="138" viewBox="0 0 120 138" fill="none" xmlns="http://www.w3.org/2000/svg">
  <path
    d="M60 8C36.2518 8 17 27.2518 17 51C17 68.1047 26.2028 80.8661 35.9376 92.3934C45.7808 104.049 55.7502 114.923 60 126C64.2498 114.923 74.2192 104.049 84.0624 92.3934C93.7972 80.8661 103 68.1047 103 51C103 27.2518 83.7482 8 60 8Z"
    fill="#22C55E"
  />
  <path
    d="M56.7144 29.2494C58.5138 27.8168 61.0677 27.8168 62.8671 29.2494L96.8237 56.2823C98.5833 57.6823 97.5931 60.5 95.3341 60.5H88V74.443C88 79.2826 84.5695 83.4414 79.8193 84.362L62.2138 87.7737C60.8256 88.0427 59.3986 88.0755 57.9992 87.8706L42.8086 85.646C37.4206 84.8571 33.5 80.2382 33.5 74.7928V60.5H24.2474C21.9884 60.5 20.9982 57.6823 22.7578 56.2823L56.7144 29.2494Z"
    fill="white"
  />
  <rect x="51.5" y="53" width="8" height="8" rx="0.5" fill="#22C55E" />
  <rect x="62.5" y="53" width="8" height="8" rx="0.5" fill="#22C55E" />
  <rect x="51.5" y="64" width="8" height="8" rx="0.5" fill="#22C55E" />
  <rect x="62.5" y="64" width="8" height="8" rx="0.5" fill="#22C55E" />
  <path
    d="M76.5 71C63.6561 72.2695 49.3465 78.8344 39.5 91.5C32.8388 100.07 29.9305 108.277 28.666 113.21C28.3163 114.575 30.0065 115.378 30.8174 114.226C37.6299 104.547 49.5542 94.6657 64.6213 87.0057C73.6784 82.4026 82.8524 79.3913 90.8409 77.4508C92.5168 77.0438 93.448 75.2198 92.6391 73.6992C90.9988 70.6157 86.7511 69.987 76.5 71Z"
    fill="white"
  />
  <ellipse cx="60" cy="128.5" rx="11" ry="2.5" fill="#22C55E" />
</svg>
