<svg width="337" height="138" viewBox="0 0 337 138" fill="none" xmlns="http://www.w3.org/2000/svg">
  <path
    d="M73 8C49.2518 8 30 27.2518 30 51C30 68.1047 39.2028 80.8661 48.9376 92.3934C58.7808 104.049 68.7502 114.923 73 126C77.2498 114.923 87.2192 104.049 97.0624 92.3934C106.797 80.8661 116 68.1047 116 51C116 27.2518 96.7482 8 73 8Z"
    fill="#22C55E"
  />
  <path
    d="M69.7144 29.2494C71.5138 27.8168 74.0677 27.8168 75.8671 29.2494L109.824 56.2823C111.583 57.6823 110.593 60.5 108.334 60.5H101V74.443C101 79.2826 97.5695 83.4414 92.8193 84.362L75.2138 87.7737C73.8256 88.0427 72.3986 88.0755 70.9992 87.8706L55.8086 85.646C50.4206 84.8571 46.5 80.2382 46.5 74.7928V60.5H37.2474C34.9884 60.5 33.9982 57.6823 35.7578 56.2823L69.7144 29.2494Z"
    fill="white"
  />
  <rect x="64.5" y="53" width="8" height="8" rx="0.5" fill="#22C55E" />
  <rect x="75.5" y="53" width="8" height="8" rx="0.5" fill="#22C55E" />
  <rect x="64.5" y="64" width="8" height="8" rx="0.5" fill="#22C55E" />
  <rect x="75.5" y="64" width="8" height="8" rx="0.5" fill="#22C55E" />
  <path
    d="M89.5 71C76.6561 72.2695 62.3465 78.8344 52.5 91.5C45.8388 100.07 42.9305 108.277 41.666 113.21C41.3163 114.575 43.0065 115.378 43.8174 114.226C50.6299 104.547 62.5542 94.6657 77.6213 87.0057C86.6784 82.4026 95.8524 79.3913 103.841 77.4508C105.517 77.0438 106.448 75.2198 105.639 73.6992C103.999 70.6157 99.7511 69.987 89.5 71Z"
    fill="white"
  />
  <ellipse cx="73" cy="128.5" rx="11" ry="2.5" fill="#22C55E" />
  <text
    x="5"
    y="132"
    fill="#16A34A"
    font-family="Inter, Arial, Helvetica, sans-serif"
    font-size="64"
    font-weight="700"
    letter-spacing="-0.04em"
  >
    Propti
  </text>
</svg>
